<svg width="110" height="110" viewBox="0 0 110 110" fill="none" xmlns="http://www.w3.org/2000/svg">
<g clip-path="url(#clip0_184_1385)">
<path d="M0 0H4.4V4.4H0V0ZM4.4 0H8.8V4.4H4.4V0ZM8.8 0H13.2V4.4H8.8V0ZM13.2 0H17.6V4.4H13.2V0ZM17.6 0H22V4.4H17.6V0ZM22 0H26.4V4.4H22V0ZM26.4 0H30.8V4.4H26.4V0ZM44 0H48.4V4.4H44V0ZM52.8 0H57.2V4.4H52.8V0ZM57.2 0H61.6V4.4H57.2V0ZM70.4 0H74.8V4.4H70.4V0ZM79.2 0H83.6V4.4H79.2V0ZM83.6 0H88V4.4H83.6V0ZM88 0H92.4V4.4H88V0ZM92.4 0H96.8V4.4H92.4V0ZM96.8 0H101.2V4.4H96.8V0ZM101.2 0H105.6V4.4H101.2V0ZM105.6 0H110V4.4H105.6V0ZM0 4.4H4.4V8.8H0V4.4ZM26.4 4.4H30.8V8.8H26.4V4.4ZM35.2 4.4H39.6V8.8H35.2V4.4ZM44 4.4H48.4V8.8H44V4.4ZM61.6 4.4H66V8.8H61.6V4.4ZM66 4.4H70.4V8.8H66V4.4ZM70.4 4.4H74.8V8.8H70.4V4.4ZM79.2 4.4H83.6V8.8H79.2V4.4ZM105.6 4.4H110V8.8H105.6V4.4ZM0 8.8H4.4V13.2H0V8.8ZM8.8 8.8H13.2V13.2H8.8V8.8ZM13.2 8.8H17.6V13.2H13.2V8.8ZM17.6 8.8H22V13.2H17.6V8.8ZM26.4 8.8H30.8V13.2H26.4V8.8ZM52.8 8.8H57.2V13.2H52.8V8.8ZM61.6 8.8H66V13.2H61.6V8.8ZM70.4 8.8H74.8V13.2H70.4V8.8ZM79.2 8.8H83.6V13.2H79.2V8.8ZM88 8.8H92.4V13.2H88V8.8ZM92.4 8.8H96.8V13.2H92.4V8.8ZM96.8 8.8H101.2V13.2H96.8V8.8ZM105.6 8.8H110V13.2H105.6V8.8ZM0 13.2H4.4V17.6H0V13.2ZM8.8 13.2H13.2V17.6H8.8V13.2ZM13.2 13.2H17.6V17.6H13.2V13.2ZM17.6 13.2H22V17.6H17.6V13.2ZM26.4 13.2H30.8V17.6H26.4V13.2ZM35.2 13.2H39.6V17.6H35.2V13.2ZM39.6 13.2H44V17.6H39.6V13.2ZM44 13.2H48.4V17.6H44V13.2ZM52.8 13.2H57.2V17.6H52.8V13.2ZM57.2 13.2H61.6V17.6H57.2V13.2ZM61.6 13.2H66V17.6H61.6V13.2ZM79.2 13.2H83.6V17.6H79.2V13.2ZM88 13.2H92.4V17.6H88V13.2ZM92.4 13.2H96.8V17.6H92.4V13.2ZM96.8 13.2H101.2V17.6H96.8V13.2ZM105.6 13.2H110V17.6H105.6V13.2ZM0 17.6H4.4V22H0V17.6ZM8.8 17.6H13.2V22H8.8V17.6ZM13.2 17.6H17.6V22H13.2V17.6ZM17.6 17.6H22V22H17.6V17.6ZM26.4 17.6H30.8V22H26.4V17.6ZM39.6 17.6H44V22H39.6V17.6ZM57.2 17.6H61.6V22H57.2V17.6ZM61.6 17.6H66V22H61.6V17.6ZM79.2 17.6H83.6V22H79.2V17.6ZM88 17.6H92.4V22H88V17.6ZM92.4 17.6H96.8V22H92.4V17.6ZM96.8 17.6H101.2V22H96.8V17.6ZM105.6 17.6H110V22H105.6V17.6ZM0 22H4.4V26.4H0V22ZM26.4 22H30.8V26.4H26.4V22ZM35.2 22H39.6V26.4H35.2V22ZM39.6 22H44V26.4H39.6V22ZM48.4 22H52.8V26.4H48.4V22ZM52.8 22H57.2V26.4H52.8V22ZM66 22H70.4V26.4H66V22ZM70.4 22H74.8V26.4H70.4V22ZM79.2 22H83.6V26.4H79.2V22ZM105.6 22H110V26.4H105.6V22ZM0 26.4H4.4V30.8H0V26.4ZM4.4 26.4H8.8V30.8H4.4V26.4ZM8.8 26.4H13.2V30.8H8.8V26.4ZM13.2 26.4H17.6V30.8H13.2V26.4ZM17.6 26.4H22V30.8H17.6V26.4ZM22 26.4H26.4V30.8H22V26.4ZM26.4 26.4H30.8V30.8H26.4V26.4ZM35.2 26.4H39.6V30.8H35.2V26.4ZM44 26.4H48.4V30.8H44V26.4ZM52.8 26.4H57.2V30.8H52.8V26.4ZM61.6 26.4H66V30.8H61.6V26.4ZM70.4 26.4H74.8V30.8H70.4V26.4ZM79.2 26.4H83.6V30.8H79.2V26.4ZM83.6 26.4H88V30.8H83.6V26.4ZM88 26.4H92.4V30.8H88V26.4ZM92.4 26.4H96.8V30.8H92.4V26.4ZM96.8 26.4H101.2V30.8H96.8V26.4ZM101.2 26.4H105.6V30.8H101.2V26.4ZM105.6 26.4H110V30.8H105.6V26.4ZM39.6 30.8H44V35.2H39.6V30.8ZM44 30.8H48.4V35.2H44V30.8ZM48.4 30.8H52.8V35.2H48.4V30.8ZM61.6 30.8H66V35.2H61.6V30.8ZM66 30.8H70.4V35.2H66V30.8ZM70.4 30.8H74.8V35.2H70.4V30.8ZM0 35.2H4.4V39.6H0V35.2ZM4.4 35.2H8.8V39.6H4.4V35.2ZM8.8 35.2H13.2V39.6H8.8V35.2ZM13.2 35.2H17.6V39.6H13.2V35.2ZM17.6 35.2H22V39.6H17.6V35.2ZM26.4 35.2H30.8V39.6H26.4V35.2ZM30.8 35.2H35.2V39.6H30.8V35.2ZM35.2 35.2H39.6V39.6H35.2V35.2ZM39.6 35.2H44V39.6H39.6V35.2ZM48.4 35.2H52.8V39.6H48.4V35.2ZM66 35.2H70.4V39.6H66V35.2ZM70.4 35.2H74.8V39.6H70.4V35.2ZM74.8 35.2H79.2V39.6H74.8V35.2ZM83.6 35.2H88V39.6H83.6V35.2ZM92.4 35.2H96.8V39.6H92.4V35.2ZM101.2 35.2H105.6V39.6H101.2V35.2ZM4.4 39.6H8.8V44H4.4V39.6ZM8.8 39.6H13.2V44H8.8V39.6ZM13.2 39.6H17.6V44H13.2V39.6ZM17.6 39.6H22V44H17.6V39.6ZM44 39.6H48.4V44H44V39.6ZM52.8 39.6H57.2V44H52.8V39.6ZM57.2 39.6H61.6V44H57.2V39.6ZM70.4 39.6H74.8V44H70.4V39.6ZM83.6 39.6H88V44H83.6V39.6ZM101.2 39.6H105.6V44H101.2V39.6ZM0 44H4.4V48.4H0V44ZM8.8 44H13.2V48.4H8.8V44ZM13.2 44H17.6V48.4H13.2V44ZM26.4 44H30.8V48.4H26.4V44ZM35.2 44H39.6V48.4H35.2V44ZM44 44H48.4V48.4H44V44ZM57.2 44H61.6V48.4H57.2V44ZM61.6 44H66V48.4H61.6V44ZM66 44H70.4V48.4H66V44ZM74.8 44H79.2V48.4H74.8V44ZM79.2 44H83.6V48.4H79.2V44ZM92.4 44H96.8V48.4H92.4V44ZM101.2 44H105.6V48.4H101.2V44ZM105.6 44H110V48.4H105.6V44ZM4.4 48.4H8.8V52.8H4.4V48.4ZM8.8 48.4H13.2V52.8H8.8V48.4ZM13.2 48.4H17.6V52.8H13.2V48.4ZM22 48.4H26.4V52.8H22V48.4ZM30.8 48.4H35.2V52.8H30.8V48.4ZM35.2 48.4H39.6V52.8H35.2V48.4ZM52.8 48.4H57.2V52.8H52.8V48.4ZM57.2 48.4H61.6V52.8H57.2V48.4ZM74.8 48.4H79.2V52.8H74.8V48.4ZM79.2 48.4H83.6V52.8H79.2V48.4ZM83.6 48.4H88V52.8H83.6V48.4ZM105.6 48.4H110V52.8H105.6V48.4ZM0 52.8H4.4V57.2H0V52.8ZM22 52.8H26.4V57.2H22V52.8ZM26.4 52.8H30.8V57.2H26.4V52.8ZM35.2 52.8H39.6V57.2H35.2V52.8ZM39.6 52.8H44V57.2H39.6V52.8ZM44 52.8H48.4V57.2H44V52.8ZM52.8 52.8H57.2V57.2H52.8V52.8ZM61.6 52.8H66V57.2H61.6V52.8ZM66 52.8H70.4V57.2H66V52.8ZM70.4 52.8H74.8V57.2H70.4V52.8ZM74.8 52.8H79.2V57.2H74.8V52.8ZM79.2 52.8H83.6V57.2H79.2V52.8ZM83.6 52.8H88V57.2H83.6V52.8ZM88 52.8H92.4V57.2H88V52.8ZM96.8 52.8H101.2V57.2H96.8V52.8ZM101.2 52.8H105.6V57.2H101.2V52.8ZM105.6 52.8H110V57.2H105.6V52.8ZM0 57.2H4.4V61.6H0V57.2ZM4.4 57.2H8.8V61.6H4.4V57.2ZM8.8 57.2H13.2V61.6H8.8V57.2ZM13.2 57.2H17.6V61.6H13.2V57.2ZM17.6 57.2H22V61.6H17.6V57.2ZM30.8 57.2H35.2V61.6H30.8V57.2ZM35.2 57.2H39.6V61.6H35.2V57.2ZM39.6 57.2H44V61.6H39.6V57.2ZM70.4 57.2H74.8V61.6H70.4V57.2ZM83.6 57.2H88V61.6H83.6V57.2ZM92.4 57.2H96.8V61.6H92.4V57.2ZM101.2 57.2H105.6V61.6H101.2V57.2ZM0 61.6H4.4V66H0V61.6ZM26.4 61.6H30.8V66H26.4V61.6ZM30.8 61.6H35.2V66H30.8V61.6ZM48.4 61.6H52.8V66H48.4V61.6ZM52.8 61.6H57.2V66H52.8V61.6ZM66 61.6H70.4V66H66V61.6ZM74.8 61.6H79.2V66H74.8V61.6ZM83.6 61.6H88V66H83.6V61.6ZM88 61.6H92.4V66H88V61.6ZM92.4 61.6H96.8V66H92.4V61.6ZM101.2 61.6H105.6V66H101.2V61.6ZM105.6 61.6H110V66H105.6V61.6ZM0 66H4.4V70.4H0V66ZM8.8 66H13.2V70.4H8.8V66ZM13.2 66H17.6V70.4H13.2V66ZM22 66H26.4V70.4H22V66ZM44 66H48.4V70.4H44V66ZM48.4 66H52.8V70.4H48.4V66ZM61.6 66H66V70.4H61.6V66ZM70.4 66H74.8V70.4H70.4V66ZM79.2 66H83.6V70.4H79.2V66ZM83.6 66H88V70.4H83.6V66ZM88 66H92.4V70.4H88V66ZM105.6 66H110V70.4H105.6V66ZM0 70.4H4.4V74.8H0V70.4ZM8.8 70.4H13.2V74.8H8.8V70.4ZM26.4 70.4H30.8V74.8H26.4V70.4ZM44 70.4H48.4V74.8H44V70.4ZM48.4 70.4H52.8V74.8H48.4V70.4ZM70.4 70.4H74.8V74.8H70.4V70.4ZM74.8 70.4H79.2V74.8H74.8V70.4ZM79.2 70.4H83.6V74.8H79.2V70.4ZM83.6 70.4H88V74.8H83.6V70.4ZM88 70.4H92.4V74.8H88V70.4ZM96.8 70.4H101.2V74.8H96.8V70.4ZM35.2 74.8H39.6V79.2H35.2V74.8ZM44 74.8H48.4V79.2H44V74.8ZM52.8 74.8H57.2V79.2H52.8V74.8ZM57.2 74.8H61.6V79.2H57.2V74.8ZM61.6 74.8H66V79.2H61.6V74.8ZM66 74.8H70.4V79.2H66V74.8ZM70.4 74.8H74.8V79.2H70.4V74.8ZM88 74.8H92.4V79.2H88V74.8ZM92.4 74.8H96.8V79.2H92.4V74.8ZM0 79.2H4.4V83.6H0V79.2ZM4.4 79.2H8.8V83.6H4.4V79.2ZM8.8 79.2H13.2V83.6H8.8V79.2ZM13.2 79.2H17.6V83.6H13.2V79.2ZM17.6 79.2H22V83.6H17.6V79.2ZM22 79.2H26.4V83.6H22V79.2ZM26.4 79.2H30.8V83.6H26.4V79.2ZM35.2 79.2H39.6V83.6H35.2V79.2ZM39.6 79.2H44V83.6H39.6V79.2ZM44 79.2H48.4V83.6H44V79.2ZM57.2 79.2H61.6V83.6H57.2V79.2ZM61.6 79.2H66V83.6H61.6V79.2ZM70.4 79.2H74.8V83.6H70.4V79.2ZM79.2 79.2H83.6V83.6H79.2V79.2ZM88 79.2H92.4V83.6H88V79.2ZM96.8 79.2H101.2V83.6H96.8V79.2ZM101.2 79.2H105.6V83.6H101.2V79.2ZM105.6 79.2H110V83.6H105.6V79.2ZM0 83.6H4.4V88H0V83.6ZM26.4 83.6H30.8V88H26.4V83.6ZM39.6 83.6H44V88H39.6V83.6ZM44 83.6H48.4V88H44V83.6ZM52.8 83.6H57.2V88H52.8V83.6ZM57.2 83.6H61.6V88H57.2V83.6ZM66 83.6H70.4V88H66V83.6ZM70.4 83.6H74.8V88H70.4V83.6ZM88 83.6H92.4V88H88V83.6ZM92.4 83.6H96.8V88H92.4V83.6ZM101.2 83.6H105.6V88H101.2V83.6ZM0 88H4.4V92.4H0V88ZM8.8 88H13.2V92.4H8.8V88ZM13.2 88H17.6V92.4H13.2V88ZM17.6 88H22V92.4H17.6V88ZM26.4 88H30.8V92.4H26.4V88ZM35.2 88H39.6V92.4H35.2V88ZM39.6 88H44V92.4H39.6V88ZM52.8 88H57.2V92.4H52.8V88ZM61.6 88H66V92.4H61.6V88ZM66 88H70.4V92.4H66V88ZM70.4 88H74.8V92.4H70.4V88ZM74.8 88H79.2V92.4H74.8V88ZM79.2 88H83.6V92.4H79.2V88ZM83.6 88H88V92.4H83.6V88ZM88 88H92.4V92.4H88V88ZM96.8 88H101.2V92.4H96.8V88ZM105.6 88H110V92.4H105.6V88ZM0 92.4H4.4V96.8H0V92.4ZM8.8 92.4H13.2V96.8H8.8V92.4ZM13.2 92.4H17.6V96.8H13.2V92.4ZM17.6 92.4H22V96.8H17.6V92.4ZM26.4 92.4H30.8V96.8H26.4V92.4ZM35.2 92.4H39.6V96.8H35.2V92.4ZM44 92.4H48.4V96.8H44V92.4ZM66 92.4H70.4V96.8H66V92.4ZM70.4 92.4H74.8V96.8H70.4V92.4ZM74.8 92.4H79.2V96.8H74.8V92.4ZM79.2 92.4H83.6V96.8H79.2V92.4ZM88 92.4H92.4V96.8H88V92.4ZM92.4 92.4H96.8V96.8H92.4V92.4ZM96.8 92.4H101.2V96.8H96.8V92.4ZM101.2 92.4H105.6V96.8H101.2V92.4ZM105.6 92.4H110V96.8H105.6V92.4ZM0 96.8H4.4V101.2H0V96.8ZM8.8 96.8H13.2V101.2H8.8V96.8ZM13.2 96.8H17.6V101.2H13.2V96.8ZM17.6 96.8H22V101.2H17.6V96.8ZM26.4 96.8H30.8V101.2H26.4V96.8ZM35.2 96.8H39.6V101.2H35.2V96.8ZM39.6 96.8H44V101.2H39.6V96.8ZM48.4 96.8H52.8V101.2H48.4V96.8ZM52.8 96.8H57.2V101.2H52.8V96.8ZM66 96.8H70.4V101.2H66V96.8ZM92.4 96.8H96.8V101.2H92.4V96.8ZM96.8 96.8H101.2V101.2H96.8V96.8ZM105.6 96.8H110V101.2H105.6V96.8ZM0 101.2H4.4V105.6H0V101.2ZM26.4 101.2H30.8V105.6H26.4V101.2ZM35.2 101.2H39.6V105.6H35.2V101.2ZM44 101.2H48.4V105.6H44V101.2ZM48.4 101.2H52.8V105.6H48.4V101.2ZM61.6 101.2H66V105.6H61.6V101.2ZM70.4 101.2H74.8V105.6H70.4V101.2ZM74.8 101.2H79.2V105.6H74.8V101.2ZM79.2 101.2H83.6V105.6H79.2V101.2ZM83.6 101.2H88V105.6H83.6V101.2ZM88 101.2H92.4V105.6H88V101.2ZM92.4 101.2H96.8V105.6H92.4V101.2ZM105.6 101.2H110V105.6H105.6V101.2ZM0 105.6H4.4V110H0V105.6ZM4.4 105.6H8.8V110H4.4V105.6ZM8.8 105.6H13.2V110H8.8V105.6ZM13.2 105.6H17.6V110H13.2V105.6ZM17.6 105.6H22V110H17.6V105.6ZM22 105.6H26.4V110H22V105.6ZM26.4 105.6H30.8V110H26.4V105.6ZM35.2 105.6H39.6V110H35.2V105.6ZM44 105.6H48.4V110H44V105.6ZM48.4 105.6H52.8V110H48.4V105.6ZM66 105.6H70.4V110H66V105.6ZM74.8 105.6H79.2V110H74.8V105.6ZM79.2 105.6H83.6V110H79.2V105.6ZM83.6 105.6H88V110H83.6V105.6ZM88 105.6H92.4V110H88V105.6ZM92.4 105.6H96.8V110H92.4V105.6ZM96.8 105.6H101.2V110H96.8V105.6ZM101.2 105.6H105.6V110H101.2V105.6ZM105.6 105.6H110V110H105.6V105.6Z" fill="#1F2229"/>
</g>
<defs>
<clipPath id="clip0_184_1385">
<rect width="110" height="110" fill="white"/>
</clipPath>
</defs>
</svg>
